<svg width="24" height="24" viewBox="0 0 24 24" fill="none" xmlns="http://www.w3.org/2000/svg">
<path d="M15.575 21.175L7.25 12.875C7.16667 12.7917 7.10433 12.6957 7.063 12.587C7.021 12.479 7 12.3667 7 12.25C7 12.1333 7.021 12.0207 7.063 11.912C7.10433 11.804 7.16667 11.7083 7.25 11.625L15.575 3.3C15.775 3.1 16.0083 3 16.275 3C16.5417 3 16.7833 3.10833 17 3.325C17.2 3.50833 17.3 3.73733 17.3 4.012C17.3 4.28733 17.2 4.525 17 4.725L9.45 12.25L17 19.8C17.1833 19.9833 17.275 20.2083 17.275 20.475C17.275 20.7417 17.175 20.975 16.975 21.175C16.775 21.375 16.5417 21.475 16.275 21.475C16.0083 21.475 15.775 21.375 15.575 21.175Z" fill="#121212"/>
</svg>
