<svg width="130" height="24" viewBox="0 0 130 24" fill="none" xmlns="http://www.w3.org/2000/svg">
<path d="M7.71186 6.54539H15.3444H16.5254C18.3509 6.54539 19.8305 5.0803 19.8305 3.27267C19.8305 1.46503 18.3509 -6.10352e-05 16.5254 -6.10352e-05H7.71186C3.45271 -6.10352e-05 0 3.41885 0 7.6363C0 10.7607 1.89602 13.4454 4.60949 14.6279C5.55915 15.0414 6.60797 15.2727 7.71186 15.2727H12.1186C12.7268 15.2727 13.2203 15.7614 13.2203 16.3636C13.2203 16.9658 12.7268 17.4545 12.1186 17.4545H4.4861H3.30508C1.47958 17.4545 0 18.9196 0 20.7272C0 22.5348 1.47958 23.9999 3.30508 23.9999H12.1186C16.3778 23.9999 19.8305 20.581 19.8305 16.3636C19.8305 13.2392 17.9345 10.5545 15.221 9.37194C14.2714 8.95848 13.2225 8.72721 12.1186 8.72721H7.71186C7.10373 8.72721 6.61017 8.23848 6.61017 7.6363C6.61017 7.03412 7.10373 6.54539 7.71186 6.54539Z" fill="#52B043"/>
<path d="M125.39 9.372C124.44 8.95855 123.391 8.72727 122.287 8.72727H117.881C117.272 8.72727 116.779 8.23855 116.779 7.63636C116.779 7.03418 117.272 6.54545 117.881 6.54545H125.513H126.694C128.52 6.54545 129.999 5.08036 129.999 3.27273C129.999 1.46509 128.52 0 126.694 0H117.881C113.621 0 110.169 3.41891 110.169 7.63636C110.169 10.7607 112.065 13.4455 114.778 14.628C115.728 15.0415 116.777 15.2727 117.881 15.2727H122.287C122.895 15.2727 123.389 15.7615 123.389 16.3636C123.389 16.9658 122.895 17.4545 122.287 17.4545H114.655H113.474C111.648 17.4545 110.169 18.9196 110.169 20.7273C110.169 22.5349 111.648 24 113.474 24H122.287C126.546 24 129.999 20.5811 129.999 16.3636C129.999 13.2393 128.103 10.5545 125.39 9.372Z" fill="#52B043"/>
<path d="M38.5585 0C36.733 0 35.2534 1.46509 35.2534 3.27273V8.72727H28.6433V3.27273C28.6433 1.46509 27.1637 0 25.3382 0C23.5127 0 22.0331 1.46509 22.0331 3.27273V8.72727V15.2727V20.7273C22.0331 22.5349 23.5127 24 25.3382 24C27.1637 24 28.6433 22.5349 28.6433 20.7273V15.2727H35.2534V20.7273C35.2534 22.5349 36.733 24 38.5585 24C40.384 24 41.8636 22.5349 41.8636 20.7273V15.2727V8.72727V3.27273C41.8636 1.46509 40.384 0 38.5585 0Z" fill="#52B043"/>
<path d="M60.5946 6.54545C62.4201 6.54545 63.8997 5.08036 63.8997 3.27273C63.8997 1.46509 62.4201 0 60.5946 0H47.3743C45.5488 0 44.0692 1.46509 44.0692 3.27273V8.72727V15.2727V20.7273C44.0692 22.5349 45.5488 24 47.3743 24H60.5946C62.4201 24 63.8997 22.5349 63.8997 20.7273C63.8997 18.9196 62.4201 17.4545 60.5946 17.4545H50.6794V15.2727H57.2896C59.1151 15.2727 60.5946 13.8076 60.5946 12C60.5946 10.1924 59.1151 8.72727 57.2896 8.72727H50.6794V6.54545H60.5946Z" fill="#52B043"/>
<path d="M82.6278 6.54545C84.4533 6.54545 85.9329 5.08036 85.9329 3.27273C85.9329 1.46509 84.4533 0 82.6278 0H69.4075C67.582 0 66.1024 1.46509 66.1024 3.27273V8.72727V15.2727V20.7273C66.1024 22.5349 67.582 24 69.4075 24H82.6278C84.4533 24 85.9329 22.5349 85.9329 20.7273C85.9329 18.9196 84.4533 17.4545 82.6278 17.4545H72.7126V15.2727H79.3228C81.1483 15.2727 82.6278 13.8076 82.6278 12C82.6278 10.1924 81.1483 8.72727 79.3228 8.72727H72.7126V6.54545H82.6278Z" fill="#52B043"/>
<path d="M100.254 0H95.8474C91.5882 0 88.1355 3.41891 88.1355 7.63636V20.7273C88.1355 22.5349 89.6151 24 91.4406 24C93.2661 24 94.7457 22.5349 94.7457 20.7273V15.1942C95.1059 15.2455 95.4728 15.2727 95.8474 15.2727H100.254C104.513 15.2727 107.966 11.8538 107.966 7.63636C107.966 3.41891 104.513 0 100.254 0ZM100.254 8.72727H95.8474C95.2392 8.72727 94.7457 8.23855 94.7457 7.63636C94.7457 7.03418 95.2392 6.54545 95.8474 6.54545H100.254C100.862 6.54545 101.356 7.03418 101.356 7.63636C101.356 8.23855 100.862 8.72727 100.254 8.72727Z" fill="#52B043"/>
</svg>
